<svg width="60" height="54" viewBox="0 0 60 54" fill="none" xmlns="http://www.w3.org/2000/svg">
<path fill-rule="evenodd" clip-rule="evenodd" d="M29.5794 4.19841C32.6927 1.06296 36.7099 -0.0537679 40.5625 0.00197651C49.8224 0.13596 59.1684 7.69253 59.1684 18.6392C59.1684 29.1687 52.4336 37.9349 45.7726 43.8946C42.4022 46.9101 38.9454 49.304 36.1381 50.9526C34.7354 51.7764 33.471 52.4282 32.4393 52.8821C31.9253 53.1083 31.4429 53.2969 31.0133 53.4331C30.6395 53.5517 30.1126 53.6953 29.5842 53.6953C29.0558 53.6953 28.5289 53.5517 28.1552 53.4331C27.7255 53.2969 27.2432 53.1083 26.7291 52.8821C25.6975 52.4282 24.4331 51.7764 23.0303 50.9526C20.223 49.304 16.7662 46.9101 13.3959 43.8946C6.73478 37.9349 0 29.1688 0 18.6392C0 7.7184 9.32427 0.00174711 18.638 0.00174711C22.3862 0.00174711 26.4419 1.06907 29.5794 4.19841ZM40.4983 4.43901C36.9548 4.38774 33.6527 5.59071 31.4303 8.92421C31.0188 9.54144 30.326 9.91218 29.5842 9.91218C28.8424 9.91219 28.1496 9.54145 27.7381 8.92421C25.5291 5.61087 22.167 4.43925 18.638 4.43925C11.5325 4.43925 4.4375 10.4049 4.4375 18.6392C4.4375 27.2649 10.0172 34.9174 16.3547 40.5875C19.4836 43.387 22.6972 45.6109 25.2775 47.1262C26.5685 47.8844 27.6772 48.4512 28.5162 48.8203C28.9375 49.0057 29.2649 49.1298 29.4967 49.2033C29.5298 49.2138 29.5589 49.2226 29.5842 49.2299C29.6095 49.2226 29.6386 49.2138 29.6717 49.2033C29.9035 49.1298 30.2309 49.0057 30.6522 48.8203C31.4912 48.4512 32.5999 47.8844 33.8909 47.1262C36.4712 45.6109 39.6848 43.387 42.8137 40.5875C49.1512 34.9174 54.7309 27.2649 54.7309 18.6392C54.7309 10.4307 47.6576 4.5426 40.4983 4.43901Z" fill="white"/>
</svg>
