<svg width="61" height="55" viewBox="0 0 61 55" fill="none" xmlns="http://www.w3.org/2000/svg">
<path fill-rule="evenodd" clip-rule="evenodd" d="M30.4964 5.0739C33.6097 1.93845 37.6268 0.82172 41.4795 0.877465C50.7394 1.01145 60.0854 8.56802 60.0854 19.5147C60.0854 30.0442 53.3506 38.8104 46.6895 44.7701C43.3192 47.7856 39.8624 50.1794 37.0551 51.8281C35.6523 52.6519 34.388 53.3037 33.3563 53.7576C32.8423 53.9837 32.3599 54.1724 31.9303 54.3086C31.5565 54.4272 31.0296 54.5708 30.5012 54.5708C29.9728 54.5708 29.4459 54.4272 29.0721 54.3086C28.6425 54.1724 28.1601 53.9837 27.6461 53.7576C26.6144 53.3037 25.3501 52.6519 23.9473 51.8281C21.14 50.1794 17.6832 47.7856 14.3129 44.7701C7.65177 38.8104 0.916992 30.0442 0.916992 19.5147C0.916992 8.59389 10.2413 0.877235 19.555 0.877235C23.3032 0.877235 27.3589 1.94456 30.4964 5.0739ZM41.4153 5.3145C37.8718 5.26323 34.5697 6.4662 32.3473 9.7997C31.9358 10.4169 31.243 10.7877 30.5012 10.7877C29.7594 10.7877 29.0666 10.4169 28.6551 9.7997C26.4461 6.48636 23.084 5.31474 19.555 5.31474C12.4495 5.31474 5.35449 11.2804 5.35449 19.5147C5.35449 28.1404 10.9342 35.7929 17.2717 41.463C20.4006 44.2625 23.6142 46.4863 26.1945 48.0017C27.4855 48.7599 28.5942 49.3267 29.4332 49.6958C29.8545 49.8812 30.1819 50.0052 30.4137 50.0788C30.4468 50.0893 30.4759 50.0981 30.5012 50.1054C30.5265 50.0981 30.5556 50.0893 30.5887 50.0788C30.8205 50.0052 31.1479 49.8812 31.5692 49.6958C32.4082 49.3267 33.5169 48.7599 34.8079 48.0017C37.3882 46.4863 40.6018 44.2625 43.7307 41.463C50.0682 35.7929 55.6479 28.1403 55.6479 19.5147C55.6479 11.3062 48.5746 5.41809 41.4153 5.3145Z" fill="#A97DAD"/>
</svg>

