<svg width="106" height="24" viewBox="0 0 106 24" fill="none" xmlns="http://www.w3.org/2000/svg">
<path d="M2.22012 2.02477C1.6891 1.64948 2.27617 5.65651 2.35061 6.05232C2.74494 8.14916 3.55004 9.97396 4.28691 11.9574C5.87656 16.2363 9.81495 18.6147 14.0958 19.6422C18.657 20.7369 24.2519 20.6498 28.4944 18.5154C30.6034 17.4544 32.5141 17.0472 34.2301 15.3716C34.9678 14.6512 35.5221 13.8206 36.388 13.239C36.8083 12.9568 37.717 12.5037 37.717 12.5037" stroke="white" stroke-width="3" stroke-linecap="round" stroke-linejoin="round"/>
<path d="M13.7492 12.1327C13.426 12.4021 14.5996 13.8678 14.8501 14.0552C15.6175 14.6292 16.322 13.7537 17.1759 14.7238" stroke="white" stroke-width="3" stroke-linecap="round" stroke-linejoin="round"/>
<path d="M62.3579 11.9547C62.3636 11.5783 62.711 13.8668 62.7453 14.1856C62.9331 15.9264 63.147 17.2823 64.7485 18.2432C65.674 18.7985 66.4945 19.4727 67.4071 20.0389C68.4783 20.7035 69.8397 20.8802 71.0456 21.1922C73.7808 21.8998 76.7196 22.6971 79.5697 22.4447C82.8137 22.1573 86.4266 21.1781 89.479 20.0329C91.2254 19.3777 92.3028 18.4301 93.6256 17.1889C94.4258 16.4381 95.3746 15.9788 96.1225 15.147C99.4554 11.44 103.065 7.29449 104 2.18759" stroke="white" stroke-width="3" stroke-linecap="round" stroke-linejoin="round"/>
<path d="M80.1646 13.4931C80.1646 14.5342 82.0425 13.861 82.8646 14.2599C84.2638 14.9389 84.4986 15.343 85.3729 13.6711" stroke="white" stroke-width="3" stroke-linecap="round" stroke-linejoin="round"/>
</svg>
