<svg width="99" height="76" viewBox="0 0 99 76" fill="none" xmlns="http://www.w3.org/2000/svg">
<path d="M48.6516 55.8891C47.6835 57.3713 46.8414 58.9152 45.918 60.4232C44.8195 62.2173 43.4183 63.7289 41.8301 65.1065C39.1268 67.4514 35.8991 69.2611 32.4809 70.3242C30.1148 71.0601 27.6878 71.4916 25.2274 71.7644C23.5786 71.9472 22.2981 72.1785 20.8874 71.2947C19.9585 70.7126 18.9109 70.2899 18.0465 69.6109C17.3882 69.0937 16.8203 68.4601 16.1798 67.9186C13.0274 65.2534 11.1005 61.5296 10.3285 57.459C9.85696 54.9725 10.5424 52.2756 9.86566 49.8258C9.18593 47.3654 8.76549 44.9831 8.72574 42.4153C8.68065 39.5028 8.59995 36.3813 9.09169 33.5143" stroke="white" stroke-width="3" stroke-linecap="round"/>
<path d="M64.6762 48.0052C65.5526 48.695 66.3904 49.3977 67.4907 49.6982C69.8779 50.3502 72.4971 50.4829 74.9549 50.5902C77.7266 50.7111 80.5234 50.3982 83.0646 49.2273C85.867 47.9361 88.0529 45.7865 89.1663 42.8978C90.1244 40.4121 90.8354 37.761 91.3199 35.1468C91.6339 33.452 91.8637 32.124 91.4505 30.4518C90.7888 27.7743 90.873 25.103 89.7346 22.5177C88.8234 20.4484 87.6553 18.5016 86.6977 16.4534C85.8499 14.64 85.1229 12.8596 84.0068 11.1857C82.1087 8.33899 80.1118 5.54326 78.0857 2.78639C77.7357 2.31003 77.5187 2.00757 77.0832 1.67951" stroke="white" stroke-width="3" stroke-linecap="round"/>
<path d="M77.0252 36.4794C77.3097 36.991 77.7854 38.0694 78.3661 38.319C78.9724 38.5796 80.2559 37.9565 80.7059 37.6023C81.5114 36.9682 82.2653 35.8851 81.975 34.8031C81.6793 33.7013 80.3378 33.1732 79.4325 32.7037" stroke="white" stroke-width="2" stroke-linecap="round"/>
<path d="M25.3467 55.9317C24.7874 57.2201 23.7096 59.0926 24.7732 60.4192C25.3047 61.0822 26.2732 61.3829 27.099 61.225C28.2033 61.0138 29.7157 59.6511 29.2826 58.4161" stroke="white" stroke-width="2" stroke-linecap="round"/>
</svg>
