<svg width="134" height="96" viewBox="0 0 134 96" fill="none" xmlns="http://www.w3.org/2000/svg">
<path d="M75.2406 33.8561C75.4403 33.3937 75.2276 33.4953 75.0667 33.8441C74.3512 35.3948 73.6191 36.9495 73.0683 38.5673C71.9715 41.789 71.0415 45.0531 70.1171 48.3265C68.5393 53.9141 65.2278 60.5841 66.5252 66.4271C67.4238 70.4735 68.4174 73.8019 71.9273 76.251C76.1543 79.2005 81.012 81.625 86.0704 82.7391C88.1517 83.1975 90.1977 83.7263 92.3058 84.0682C94.4529 84.4164 97.5393 85.0485 99.5489 84.0722C103.23 82.2839 106.851 77.8078 108.529 74.1713C110.788 69.2746 111.967 63.907 115.332 59.5872C117.532 56.7632 121.31 54.5795 124.502 53.085C126.604 52.101 133.629 51.4553 131.318 51.6644" stroke="white" stroke-width="3" stroke-linecap="round" stroke-linejoin="round"/>
<path d="M78.7574 72.1827C77.6785 71.8685 78.0636 70.3652 78.5371 69.5739C80.5798 66.1597 85.7286 69.7047 88.0308 70.9565C89.1863 71.5848 90.6865 72.9006 90.9289 74.2864C91.2686 76.2288 88.7883 77.605 87.1928 77.7076C85.288 77.83 83.1632 77.4667 81.4124 76.699C81.0094 76.5222 79.4486 75.804 80.5859 75.6467" stroke="white" stroke-width="3" stroke-linecap="round" stroke-linejoin="round"/>
<path d="M84.9704 73.7157C84.9137 73.6755 84.882 73.6041 84.8472 73.5454" stroke="white" stroke-width="3" stroke-linecap="round" stroke-linejoin="round"/>
<path d="M38.374 49.3022C37.7883 49.3081 36.8607 47.1268 36.5509 46.7714C34.2443 44.1252 30.2523 41.9782 27.3174 45.0555C24.9443 47.5438 30.186 51.4333 32.0586 52.087C32.3346 52.1834 36.454 53.2663 36.3905 53.0181" stroke="white" stroke-width="3" stroke-linecap="round" stroke-linejoin="round"/>
<path d="M31.8052 48.6236L31.8053 48.6237" stroke="white" stroke-width="3" stroke-linecap="round" stroke-linejoin="round"/>
<path d="M18.2598 6.48251C18.0169 6.56192 20.1596 7.26957 20.5838 7.49766C21.8527 8.18001 22.6491 9.90846 23.076 11.2142C24.409 15.2913 23.6636 18.5901 22.413 22.5908C20.973 27.1972 20.3184 31.887 19.321 36.5795C18.6102 39.924 17.5662 45.2273 19.7549 48.0775C22.7177 51.9359 26.235 55.5973 30.4357 58.0666C32.7401 59.4212 35.1503 59.3886 37.5407 60.3818C39.5258 61.2067 41.4549 61.3294 43.5962 60.9117C46.7715 60.2923 48.6035 58.3594 50.7615 56.1023C53.2504 53.4991 55.3272 50.7975 57.3899 47.8495C59.8863 44.2817 62.1754 40.56 64.5415 36.9081C65.6333 35.2231 68.8693 30.1736 68.0282 31.9966" stroke="white" stroke-width="3" stroke-linecap="round" stroke-linejoin="round"/>
</svg>
