<svg width="78" height="78" viewBox="0 0 78 78" fill="none" xmlns="http://www.w3.org/2000/svg">
<path d="M5.67961 56.5135C13.2867 66.1596 19.4367 62.8527 28.3463 68.5062C33.4234 71.7267 36.934 78.4378 44.0755 77.9101C49.4466 77.5122 54.3305 73.3855 56.7382 68.7096C57.8626 66.5251 57.7081 63.2312 58.9334 61.209C61.4634 57.0369 65.6392 56.0182 69.6369 53.3407C74.2441 50.2522 77.9886 46.2878 77.6904 39.7799C77.4007 33.4321 72.4115 28.9335 70.6605 23.0204C68.828 16.8305 70.7979 11.9771 64.5877 7.63856C59.648 4.1889 54.0988 6.22625 48.9637 4.95669C35.8375 1.71465 28.6661 -5.63454 18.8015 7.70345C14.6751 13.2835 12.8103 20.345 8.37695 25.3995C0.497356 34.3902 -4.41236 43.7162 5.67961 56.5135Z" fill="#EDEFFF" fill-opacity="0.51"/>
</svg>
